<mxfile host="app.diagrams.net" modified="2022-02-09T09:48:30.174Z" agent="5.0 (X11)" etag="fFHc2DOV0CBUBikqoxsb" version="16.5.4" type="github">
  <diagram name="Page-1" id="6133507b-19e7-1e82-6fc7-422aa6c4b21f">
    <mxGraphModel dx="1303" dy="626" grid="1" gridSize="10" guides="1" tooltips="1" connect="1" arrows="1" fold="1" page="1" pageScale="1" pageWidth="1100" pageHeight="850" background="none" math="0" shadow="0">
      <root>
        <mxCell id="0" />
        <mxCell id="1" parent="0" />
        <mxCell id="Jkel6b39HnkcvDMu4iHY-2" value="&lt;&lt;object value&gt;&gt;" style="swimlane;fontStyle=0;startSize=40;" vertex="1" parent="1">
          <mxGeometry x="80" y="30" width="160" height="100" as="geometry" />
        </mxCell>
        <mxCell id="Jkel6b39HnkcvDMu4iHY-3" value="&lt;&lt;aggregate&gt;&gt;" style="swimlane;fontStyle=0;startSize=40;" vertex="1" parent="1">
          <mxGeometry x="310" y="30" width="160" height="100" as="geometry" />
        </mxCell>
        <mxCell id="Jkel6b39HnkcvDMu4iHY-4" value="&lt;&lt;entity&gt;&gt;" style="swimlane;fontStyle=0;startSize=40;" vertex="1" parent="1">
          <mxGeometry x="530" y="30" width="160" height="100" as="geometry" />
        </mxCell>
        <mxCell id="Jkel6b39HnkcvDMu4iHY-5" value="&lt;&lt;object value&gt;&gt;&#xa;Address" style="swimlane;fontStyle=0;startSize=40;verticalAlign=middle;" vertex="1" parent="1">
          <mxGeometry x="80" y="220" width="160" height="130" as="geometry" />
        </mxCell>
        <mxCell id="Jkel6b39HnkcvDMu4iHY-6" value="&lt;&lt;entity&gt;&gt;&#xa;Person" style="swimlane;fontStyle=0;startSize=40;" vertex="1" parent="1">
          <mxGeometry x="280" y="210" width="160" height="100" as="geometry" />
        </mxCell>
      </root>
    </mxGraphModel>
  </diagram>
</mxfile>
